<?xml version="1.0" encoding="UTF-8"?>
<svg version="1.1" xmlns="http://www.w3.org/2000/svg" width="1067" height="1042">
<path d="M0 0 C2.86018709 0.00460721 5.71994634 -0.00222304 8.58007812 -0.02050781 C100.39997809 -0.60086529 189.79070645 24.75073188 294.37670898 84.31567383 C295.66836625 85.15422998 296.96003253 85.99277224 298.25170898 86.83129883 C313.33973097 96.69578182 327.76446274 107.3637526 341.63256836 118.87573242 C344.08837636 120.9032178 346.57993767 122.88573079 349.06420898 124.87817383 C353.74797867 128.70842524 358.20026119 132.75473446 362.61181641 136.89208984 C365.39548212 139.50213815 368.21472212 142.04567268 371.11108398 144.53051758 C376.28564848 149.03626081 381.0999023 153.89314206 385.93920898 158.75317383 C387.29949219 160.10765625 387.29949219 160.10765625 388.68725586 161.48950195 C393.26223131 166.07111261 397.70560805 170.70484173 401.92138672 175.61962891 C403.77118355 177.77539784 405.6994917 179.85411968 407.62670898 181.94067383 C412.17473664 186.98121209 416.34362994 192.26445849 420.49780273 197.62817383 C422.3944713 200.0734869 424.32218173 202.48718488 426.28686523 204.87817383 C434.27665278 214.62143014 441.40890044 224.82260903 448.37670898 235.31567383 C448.91972656 236.12697754 449.46274414 236.93828125 450.0222168 237.77416992 C497.46039012 308.76230986 527.589088 391.34125379 536.37670898 476.31567383 C536.46284454 477.11878998 536.5489801 477.92190613 536.63772583 478.74935913 C538.38755506 495.47448011 538.72166024 512.14146786 538.69238281 528.93896484 C538.6877756 531.79915193 538.69460585 534.65891118 538.71289062 537.51904297 C539.24430872 621.59611315 517.98239388 703.38807769 480.37670898 778.31567383 C479.91377441 779.23880371 479.45083984 780.16193359 478.97387695 781.11303711 C462.84509662 813.03445419 442.64885582 843.06574756 419.82104492 870.56713867 C417.77297382 873.04656485 415.76677208 875.55939428 413.75170898 878.06567383 C409.35826035 883.43276217 404.69026794 888.50733644 399.96630859 893.58251953 C398.00798071 895.71770147 396.08806935 897.88584829 394.16186523 900.05004883 C389.37872289 905.37245238 384.38487911 910.45578145 379.31420898 915.50317383 C378.46793945 916.35331055 377.62166992 917.20344727 376.74975586 918.0793457 C372.32636514 922.49591546 367.83647601 926.76511699 363.09472656 930.83837891 C360.93309905 932.69712668 358.84582391 934.63147314 356.75170898 936.56567383 C351.71117073 941.11370148 346.42792433 945.28259478 341.06420898 949.43676758 C338.61889591 951.33343615 336.20519793 953.26114658 333.81420898 955.22583008 C324.76476183 962.6453212 315.3349905 969.32421676 305.60473633 975.82104492 C303.61767228 977.15402828 301.64486881 978.50467287 299.67749023 979.86645508 C267.98295592 1001.66641286 232.80493774 1018.92475145 197.00170898 1032.81567383 C196.34303833 1033.07165344 195.68436768 1033.32763306 195.0057373 1033.59136963 C164.74818852 1045.30216517 164.74818852 1045.30216517 151.18920898 1039.56567383 C149.89638398 1038.8542521 148.62130822 1038.10844751 147.37670898 1037.31567383 C146.46920898 1036.77942383 145.56170898 1036.24317383 144.62670898 1035.69067383 C138.19353759 1028.90010402 136.24263343 1020.74738518 136.26991272 1011.64741516 C136.27046943 1010.99022419 136.27102613 1010.33303321 136.27159971 1009.65592736 C136.27462767 1007.46084717 136.28480639 1005.26585888 136.29492188 1003.07080078 C136.29847975 1001.49337866 136.30156526 999.91595541 136.30421448 998.33853149 C136.31076162 994.94242841 136.32031961 991.54635171 136.33210945 988.15026283 C136.35045075 982.76393334 136.36001603 977.37761018 136.36802673 971.99125671 C136.39213496 956.67415556 136.42781328 941.35709313 136.47265625 926.04003906 C136.4973482 917.57946005 136.51462529 909.11889663 136.52421564 900.65828675 C136.53069908 895.32185392 136.5461337 889.98555047 136.56853306 884.64916193 C136.58041219 881.30063127 136.58363907 877.95213038 136.58463097 874.60358047 C136.58674679 873.07113569 136.59222554 871.53869047 136.60166168 870.00627327 C136.68709275 855.55040552 135.73302107 841.02002747 132.25170898 826.94067383 C132.03998047 826.07692139 131.82825195 825.21316895 131.61010742 824.32324219 C126.67101617 805.17992192 118.69939536 788.26675685 104.83056641 774.04418945 C101.37670898 770.49822092 101.37670898 770.49822092 101.37670898 768.31567383 C102.25480225 768.19562988 103.13289551 768.07558594 104.03759766 767.9519043 C173.99112146 758.28778112 248.38215835 739.9567287 294.13647461 681.47827148 C337.30255663 624.26765492 351.12795464 544.73698874 342.24951172 474.42773438 C341.46800774 469.34585048 340.51323986 464.32972976 339.37670898 459.31567383 C339.16240234 458.35709473 338.9480957 457.39851563 338.72729492 456.41088867 C332.06010541 427.63133918 319.14561201 401.04709481 301.31420898 377.56567383 C300.68953735 376.72758179 300.68953735 376.72758179 300.05224609 375.87255859 C298.18232821 373.41670615 296.40416092 371.33732291 293.97436523 369.42114258 C291.45403851 367.4170839 290.35762808 366.41257553 289.37670898 363.31567383 C290.12865762 357.28992326 292.52049112 351.55944052 294.53735352 345.86791992 C295.75274988 342.17223825 296.52251104 338.45589164 297.18920898 334.62817383 C297.4019043 333.42805664 297.61459961 332.22793945 297.83374023 330.99145508 C298.01291992 329.77844727 298.19209961 328.56543945 298.37670898 327.31567383 C298.51810303 326.37425537 298.51810303 326.37425537 298.66235352 325.41381836 C299.66151117 317.83344695 299.62037081 310.19855399 299.62670898 302.56567383 C299.62738373 301.83368774 299.62805847 301.10170166 299.62875366 300.34753418 C299.6109162 288.12270276 298.85325583 276.30800463 296.37670898 264.31567383 C296.19978516 263.45087402 296.02286133 262.58607422 295.84057617 261.69506836 C293.63496409 251.20983996 290.83530795 241.01155423 287.25634766 230.91064453 C286.19636795 227.91044565 285.37670898 225.52474607 285.37670898 222.31567383 C236.88211693 220.32190502 194.24232642 242.08074175 154.07592773 267.30786133 C153.29008301 267.79738281 152.50423828 268.2869043 151.69458008 268.79125977 C149.34452809 270.29303021 149.34452809 270.29303021 147.12524414 272.06665039 C143.21794138 275.03671404 140.55857929 276.77407645 135.55249023 276.36254883 C133.8185783 276.05948973 132.09261313 275.7080619 130.37670898 275.31567383 C129.4658252 275.12166992 128.55494141 274.92766602 127.61645508 274.7277832 C124.58768812 274.0489128 121.57745375 273.31027555 118.56420898 272.56567383 C41.97278594 254.45232089 -38.55413436 255.17410073 -114.90698242 274.08056641 C-116.68274658 274.51598755 -116.68274658 274.51598755 -118.49438477 274.96020508 C-119.53522217 275.22164307 -120.57605957 275.48308105 -121.6484375 275.75244141 C-125.41315418 276.46521952 -128.90886911 277.04350697 -132.51586914 275.51220703 C-133.05663086 275.13410889 -133.59739258 274.75601074 -134.15454102 274.36645508 C-134.7889209 273.93695557 -135.42330078 273.50745605 -136.0769043 273.06494141 C-137.08986572 272.35374146 -137.08986572 272.35374146 -138.12329102 271.62817383 C-139.62847899 270.61385162 -141.13643466 269.60362778 -142.64672852 268.59692383 C-143.44820313 268.06196289 -144.24967773 267.52700195 -145.07543945 266.97583008 C-153.05875982 261.77397319 -161.36495521 257.06368972 -169.62329102 252.31567383 C-170.29537598 251.92782715 -170.96746094 251.53998047 -171.65991211 251.14038086 C-190.47194235 240.38848492 -210.74595118 232.04843522 -231.62329102 226.31567383 C-232.4133252 226.09266602 -233.20335937 225.8696582 -234.01733398 225.63989258 C-247.83348982 221.84938822 -261.37277162 221.86189121 -275.62329102 222.31567383 C-275.78571289 223.55510742 -275.78571289 223.55510742 -275.95141602 224.81958008 C-276.71471913 228.79141894 -278.01168768 232.45989313 -279.37329102 236.25317383 C-281.8363414 243.39303442 -283.76126971 250.56290762 -285.37329102 257.94067383 C-285.57148438 258.83262451 -285.76967773 259.7245752 -285.97387695 260.64355469 C-288.83960084 274.24349649 -290.00997319 287.69624994 -289.93579102 301.56567383 C-289.9339682 302.28112366 -289.93214539 302.99657349 -289.93026733 303.73370361 C-289.84224819 324.36229514 -286.345291 343.80018999 -279.62329102 363.31567383 C-280.3715918 364.08524414 -280.3715918 364.08524414 -281.13500977 364.87036133 C-293.56931165 378.13064017 -303.3521472 393.1824187 -311.62329102 409.31567383 C-312.1543042 410.33298584 -312.1543042 410.33298584 -312.69604492 411.37084961 C-326.07946034 437.2395911 -333.6250427 466.7272397 -333.86157227 495.86645508 C-333.8713208 496.86626907 -333.88106934 497.86608307 -333.89111328 498.89619446 C-334.44712066 570.91131251 -321.75919064 643.80466432 -269.8112793 697.41088867 C-262.53795996 704.78749775 -255.09255164 711.34520352 -246.62329102 717.31567383 C-245.8239917 717.89744385 -245.8239917 717.89744385 -245.00854492 718.4909668 C-203.72226167 748.46728096 -150.96975384 761.79196937 -100.87768555 767.43017578 C-97.1084984 767.86731002 -94.83489972 768.17460136 -91.62329102 770.31567383 C-92.15696289 770.79133789 -92.69063477 771.26700195 -93.24047852 771.75708008 C-109.14255352 786.69622666 -120.0334907 808.92906193 -123.31469727 830.51489258 C-123.42265625 831.19479248 -123.53061523 831.87469238 -123.6418457 832.57519531 C-123.91829488 834.44719709 -124.14176021 836.32680489 -124.36157227 838.20629883 C-125.96589594 842.15998813 -127.52109378 842.85048325 -131.33398438 844.47045898 C-132.46719116 844.88884033 -132.46719116 844.88884033 -133.62329102 845.31567383 C-134.35233643 845.58557129 -135.08138184 845.85546875 -135.83251953 846.13354492 C-138.12453216 846.93283397 -140.4277837 847.66602389 -142.74829102 848.37817383 C-143.98736206 848.76332153 -143.98736206 848.76332153 -145.25146484 849.15625 C-168.58496627 856.26304911 -192.76579707 857.82882236 -216.62329102 852.31567383 C-216.12700195 853.0865332 -215.63071289 853.85739258 -215.11938477 854.65161133 C-213.62329102 857.31567383 -213.62329102 857.31567383 -213.68579102 859.94067383 C-214.84511817 862.87763596 -215.95381492 863.67399254 -218.62329102 865.31567383 C-223.53694392 866.22926758 -228.20682062 865.91047425 -232.62329102 863.50317383 C-235.62329102 861.31567383 -235.62329102 861.31567383 -237.62329102 858.31567383 C-238.09187089 854.64513145 -238.13539096 852.99237733 -235.87329102 850.00317383 C-233.64424408 848.33138863 -232.28607921 847.88067721 -229.62329102 847.31567383 C-230.71383789 846.82260742 -230.71383789 846.82260742 -231.82641602 846.31958008 C-256.57787094 834.61023794 -272.25413877 814.35536062 -286.12329102 791.56567383 C-300.8875827 768.12473679 -325.071717 751.26884597 -351.62329102 744.31567383 C-361.85591355 742.24462373 -372.93082244 742.08975753 -382.62329102 746.31567383 C-383.61329102 746.97567383 -384.60329102 747.63567383 -385.62329102 748.31567383 C-386.33327453 751.86559141 -386.33979508 754.20834936 -384.33422852 757.30786133 C-382.52512628 759.43087171 -380.631571 761.38021316 -378.62329102 763.31567383 C-378.00969727 763.91508789 -377.39610352 764.51450195 -376.76391602 765.13208008 C-373.18352286 768.43876549 -369.45370753 771.12713373 -365.31079102 773.69067383 C-335.99890684 791.85350109 -317.72051557 823.08779355 -305.56860352 854.56567383 C-301.21726782 865.61917971 -293.83223351 874.86190322 -285.62329102 883.31567383 C-284.61395508 884.43522461 -284.61395508 884.43522461 -283.58422852 885.57739258 C-261.7594728 908.99609113 -226.87526177 919.09093915 -195.71728516 920.44165039 C-172.59153109 921.02417237 -150.35357107 918.19204509 -127.62329102 914.31567383 C-127.27682378 932.34018611 -126.9690883 950.36499282 -126.70954037 968.39095592 C-126.64708425 972.72627459 -126.58010148 977.06150374 -126.51147461 981.39672852 C-126.4316875 986.6063394 -126.37433919 991.81570939 -126.33618164 997.02578735 C-126.31941831 998.90898241 -126.29563338 1000.79212966 -126.2644043 1002.67514038 C-126.08434719 1013.91821466 -126.24342382 1023.45388188 -132.49829102 1033.25317383 C-139.28944999 1039.84459284 -146.87390532 1041.87445971 -156.18725586 1041.87915039 C-165.84013562 1041.52697236 -174.72413136 1037.78149819 -183.62329102 1034.31567383 C-184.71480469 1033.89205566 -185.80631836 1033.4684375 -186.9309082 1033.03198242 C-220.99059477 1019.65858901 -254.01491126 1003.41047688 -284.62329102 983.31567383 C-285.69321289 982.62086914 -286.76313477 981.92606445 -287.86547852 981.21020508 C-301.58114561 972.19652142 -314.85730691 962.62758334 -327.62329102 952.31567383 C-328.55399414 951.56801758 -329.48469727 950.82036133 -330.44360352 950.05004883 C-333.18791882 947.82579327 -335.91016459 945.57786511 -338.62329102 943.31567383 C-339.13794922 942.88738281 -339.65260742 942.4590918 -340.18286133 942.01782227 C-353.46636304 930.92312441 -365.98351789 919.01997261 -378.24829102 906.81567383 C-379.20614502 905.8648291 -379.20614502 905.8648291 -380.18334961 904.89477539 C-383.95773629 901.10746613 -387.53429679 897.19698801 -391.02905273 893.15063477 C-393.08940581 890.77917785 -395.23099394 888.48810276 -397.37329102 886.19067383 C-402.12083619 880.98415148 -406.47355544 875.54175144 -410.77954102 869.96801758 C-412.66157485 867.53424109 -414.57626623 865.13404314 -416.52954102 862.75708008 C-424.52151887 853.01318246 -431.65445836 842.81028086 -438.62329102 832.31567383 C-439.43781738 831.09871826 -439.43781738 831.09871826 -440.26879883 829.85717773 C-485.09621809 762.77586139 -513.87446074 686.07032486 -524.81079102 606.19067383 C-524.96588135 605.06097168 -525.12097168 603.93126953 -525.28076172 602.76733398 C-525.77451045 598.95457132 -526.21475556 595.13830415 -526.62329102 591.31567383 C-526.71156158 590.50295013 -526.79983215 589.69022644 -526.89077759 588.85287476 C-528.64710122 572.13962136 -528.96820753 555.47853109 -528.93896484 538.69238281 C-528.93435764 535.83219573 -528.94118789 532.97243648 -528.95947266 530.11230469 C-529.53984016 438.29081841 -504.1834057 348.91938473 -444.62329102 244.31567383 C-443.92848633 243.24575195 -443.23368164 242.17583008 -442.51782227 241.07348633 C-433.5041386 227.35781923 -423.93520053 214.08165793 -413.62329102 201.31567383 C-412.87563477 200.3849707 -412.12797852 199.45426758 -411.35766602 198.49536133 C-409.13341046 195.75104602 -406.8854823 193.02880025 -404.62329102 190.31567383 C-404.195 189.80101562 -403.76670898 189.28635742 -403.32543945 188.75610352 C-392.2307416 175.4726018 -380.3275898 162.95544696 -368.12329102 150.69067383 C-367.48939453 150.05210449 -366.85549805 149.41353516 -366.20239258 148.75561523 C-362.41508332 144.98122855 -358.5046052 141.40466805 -354.45825195 137.90991211 C-352.08679503 135.84955904 -349.79571994 133.7079709 -347.49829102 131.56567383 C-342.29176867 126.81812866 -336.84936863 122.46540941 -331.27563477 118.15942383 C-328.84185828 116.27738999 -326.44166033 114.36269861 -324.06469727 112.40942383 C-314.32079965 104.41744597 -304.11789805 97.28450648 -293.62329102 90.31567383 C-292.8119873 89.77265625 -292.00068359 89.22963867 -291.16479492 88.67016602 C-220.17665499 41.23199269 -137.59771105 11.10329481 -52.62329102 2.31567383 C-51.82017487 2.22953827 -51.01705872 2.14340271 -50.18960571 2.05465698 C-33.46448474 0.30482775 -16.79749699 -0.02927742 0 0 Z " fill="#E9E9EB" transform="translate(528.623291015625,-0.315673828125)"/>
<path d="M0 0 C4.16681526 1.46142999 7.07433797 3.61148989 9.5 7.3125 C11.23306169 11.57294332 11.42573669 13.63892307 10 18 C7.9375 20.0625 7.9375 20.0625 5 21 C-0.2786171 20.63742832 -4.24582526 18.75417474 -8 15 C-10.76580927 11.31225431 -10.35092006 7.42159277 -10 3 C-7.82113341 -1.10139593 -4.20988451 -0.49115319 0 0 Z " fill="#E9E9EB" transform="translate(266,830)"/>
<path d="M0 0 C2.00903111 3.0972563 2.16648795 4.68384341 1.5 8.3125 C-1.34991955 11.89525601 -4.00510982 14.29093405 -8.5 15.3125 C-13.37623068 15.46376993 -16.58240425 14.95481702 -20.625 12.125 C-22.5 9.3125 -22.5 9.3125 -22.5625 6.25 C-21.33441309 2.8547009 -20.404445 1.45261737 -17.5 -0.6875 C-11.47953676 -3.11884092 -5.59220492 -3.77473832 0 0 Z " fill="#E9E9EB" transform="translate(401.5,858.6875)"/>
<path d="M0 0 C3.44061658 2.50878292 4.78955482 3.85424291 5.5625 8.0625 C4.88178485 11.61734581 3.79927541 12.777046 1 15 C-3.18096245 17.09048122 -8.44589484 16.43112196 -13 16 C-16.76120108 14.08252494 -17.64066402 12.9934583 -19.0625 9.0625 C-19 6 -19 6 -17.5 3.25 C-12.22268427 -1.49958415 -6.56252698 -1.58770814 0 0 Z " fill="#E9E9EB" transform="translate(354,857)"/>
<path d="M0 0 C4.85643915 0.80940652 7.56608341 2.92841887 10.75 6.625 C11.94754817 10.21764452 12.08094958 12.85217474 11.75 16.625 C10.1875 19.125 10.1875 19.125 7.75 20.625 C4.375 20.8125 4.375 20.8125 0.75 19.625 C-2.93483623 16.31851749 -6.06221883 12.78448344 -6.5 7.75 C-6.25 4.625 -6.25 4.625 -5.1875 2.25 C-3.25 0.625 -3.25 0.625 0 0 Z " fill="#E9E9EB" transform="translate(235.25,794.375)"/>
<path d="M0 0 C4.07714387 0.47043968 6.09352644 1.79243072 9.25 4.375 C11.82817196 7.77349941 11.55727 11.22685505 11.25 15.375 C9.25 17.375 9.25 17.375 6 17.8125 C1.0854885 17.23914033 -0.29902506 15.82597494 -3.75 12.375 C-4.86445498 10.14609005 -4.91480286 8.84444894 -4.9375 6.375 C-4.95167969 5.67375 -4.96585938 4.9725 -4.98046875 4.25 C-4.57424541 0.94513218 -3.11750871 0.42511482 0 0 Z " fill="#E9E9EB" transform="translate(216.75,767.625)"/>
<path d="M0 0 C3 2.1875 3 2.1875 5 5 C4.9375 8.25 4.9375 8.25 4 11 C0.85088521 12.57455739 -1.52008816 12.34799118 -5 12 C-7.65012537 10.60853984 -8.91600114 9.28731582 -11 7 C-11.625 4.375 -11.625 4.375 -11 2 C-7.75517501 -1.89378999 -4.60081556 -1.291457 0 0 Z " fill="#E9E9EB" transform="translate(196,751)"/>
</svg>
